<svg width="24" height="24" viewBox="0 0 24 24" fill="none" xmlns="http://www.w3.org/2000/svg">
    <path d="M12 20.25C7.44375 20.25 3.75 16.5563 3.75 12C3.75 7.44375 7.44375 3.75 12 3.75C16.5563 3.75 20.25 7.44375 20.25 12C20.25 16.5563 16.5563 20.25 12 20.25ZM12 2.25C6.615 2.25 2.25 6.615 2.25 12C2.25 17.385 6.615 21.75 12 21.75C17.385 21.75 21.75 17.385 21.75 12C21.75 6.615 17.385 2.25 12 2.25Z" fill="#002859"/>
    <path d="M12 12.75C11.5875 12.75 11.25 12.4125 11.25 12V7.5C11.25 7.0875 11.5875 6.75 12 6.75C12.4125 6.75 12.75 7.0875 12.75 7.5V12C12.75 12.4125 12.4125 12.75 12 12.75Z" fill="#002859"/>
    <path d="M15.75 15.75H12C11.5875 15.75 11.25 15.4125 11.25 15C11.25 14.5875 11.5875 14.25 12 14.25H15.75C16.1625 14.25 16.5 14.5875 16.5 15C16.5 15.4125 16.1625 15.75 15.75 15.75Z" fill="#002859"/>
</svg>